<?xml version="1.0" encoding="UTF-8" standalone="no"?>
<svg
   xmlns:dc="http://purl.org/dc/elements/1.1/"
   xmlns:cc="http://creativecommons.org/ns#"
   xmlns:rdf="http://www.w3.org/1999/02/22-rdf-syntax-ns#"
   xmlns:svg="http://www.w3.org/2000/svg"
   xmlns="http://www.w3.org/2000/svg"
   version="1.1"
   id="svg2"
   viewBox="0 0 283.46457 283.46457"
   height="80mm"
   width="80mm">
  <defs
     id="defs4" />
  <metadata
     id="metadata7">
    <rdf:RDF>
      <cc:Work
         rdf:about="">
        <dc:format>image/svg+xml</dc:format>
        <dc:type
           rdf:resource="http://purl.org/dc/dcmitype/StillImage" />
        <dc:title></dc:title>
      </cc:Work>
    </rdf:RDF>
  </metadata>
  <g
     transform="translate(-447.86309,-446.69179)"
     style="display:inline"
     id="layer2">
    <path
       d="m 538.48056,677.57073 5.47658,10.34467 -6.6936,-3.34681 -7.60637,-8.21488 -4.56382,-5.47658 1.82553,-6.0851 4.25956,7.91063 5.78084,0.91276 z m 150.60613,-40.77014 0.30426,-24.9489 c 0,0 1.52127,2.43404 2.12978,4.25957 0.60851,1.82553 1.82553,15.21274 1.82553,15.21274 z m -10.04041,16.1255 10.64892,3.65106 5.78084,2.73829 -8.21488,2.43404 0.91277,6.69361 -7.91063,1.52127 -4.86808,5.17233 0,-19.77656 z m -42.29142,57.50416 -18.55954,4.56382 -18.8638,1.52128 -10.95317,-1.21702 8.51913,5.47659 8.51914,2.12978 -6.38935,2.73829 9.4319,1.52128 20.99358,-0.60851 0.60851,-3.34681 8.21488,-3.65105 8.51913,-10.34467 -12.17019,6.38935 z m -35.59781,-32.55526 23.12337,-3.34681 -6.38936,3.65106 -6.38935,4.56382 z m 3.95531,-92.49347 -0.60851,12.47445 2.12979,10.04041 5.47658,-0.60851 -4.25956,-6.69361 0.91276,-6.6936 -2.12978,-4.56382 1.52127,-5.17234 z m -49.59353,17.64678 17.34252,-9.4319 -3.04255,4.86808 5.78085,1.21702 -3.95532,1.21702 -0.91276,3.3468 -9.12765,0.91277 -0.60851,-2.43404 z m 63.89351,-10.64892 2.43404,5.47659 9.4319,-0.91276 0.30425,-6.0851 5.47659,1.52127 -3.95531,-3.65105 -9.4319,0.30425 -6.38936,2.73829 -2.43403,4.56383 z m -22.51486,46.55099 -5.17233,-2.73829 -3.95531,1.52127 0.91276,4.25957 4.86808,1.21702 z m 16.12551,-0.30425 3.95531,-5.47659 2.43404,-0.60851 1.52127,3.3468 -2.73829,3.65106 z m 59.63394,-34.98931 7.30212,9.4319 0,13.08296 -1.52128,10.64892 0.60851,10.95317 -3.95531,3.3468 -6.38935,-16.73401 2.12978,-14.90849 z m -137.52317,35.29356 -4.86808,-22.2106 -0.30426,-27.07868 -8.82339,-23.12336 -0.60851,-10.34467 8.51914,-24.64464 17.03827,-14.60423 11.56168,-6.38935 20.08082,6.69361 13.69147,-0.60851 9.73615,-0.60851 11.25743,-5.17234 16.1255,0.30426 15.517,10.64892 11.56168,18.55954 2.73829,27.38293 10.95318,31.034 10.34466,1.82552 0.60851,-13.69146 13.08296,-3.04255 9.73615,-9.4319 1.82553,-13.69147 2.12978,-12.17019 -3.95531,4.25957 -10.04041,3.04255 12.1702,-13.38721 4.25956,-11.86594 0.91277,-6.99786 -15.517,-0.30426 -11.25743,-3.3468 -10.64891,-7.91063 -9.12765,-9.73615 -7.91062,-10.34466 -7.60637,-2.12979 -13.69147,0.91277 -9.73615,-2.12979 1.21701,-8.51913 6.0851,-7.30212 5.17233,-5.17233 9.4319,-10.04041 -15.51699,-1.82553 -20.08082,3.04255 -23.12337,7.30212 -8.21488,1.82553 -6.38935,-5.17234 -2.43404,-6.6936 -0.91276,-6.38935 -13.99572,4.86807 -9.4319,7.91063 -8.21488,10.95317 0.30425,12.17019 2.12979,10.34467 -17.95104,8.21488 0,5.47659 -3.95531,10.34466 -13.08296,6.38935 -10.04041,3.95531 0,6.38935 -19.16805,7.60637 -2.12978,5.17234 -5.78084,7.30211 9.12764,14.60423 8.82339,2.43404 9.73615,4.25957 -2.12978,4.86808 6.69361,5.78084 -0.60851,6.6936 -0.91277,3.04255 2.43404,7.30212 4.86808,10.04041 10.64892,4.56382 4.25956,2.43404 1.52128,11.86593 7.60637,13.99573 2.43404,12.47444 5.78084,10.04041 -1.82553,-17.64678 -3.95531,-4.86807 z m 62.37223,10.34466 -10.34466,0 -9.73616,6.99787 -9.12764,4.25956 -4.25957,13.99572 0.60851,6.0851 4.86808,2.73829 9.12764,-0.60851 6.69361,-10.34466 12.47445,-3.3468 5.47658,-5.17233 2.43404,-3.65106 6.0851,0 4.56382,6.99786 7.60637,-1.21702 9.12765,1.52127 7.60637,1.52128 7.91062,4.56382 2.73829,-7.30212 -2.43403,-9.73615 -6.69361,-6.38935 -11.86594,-3.65106 -16.42976,-1.21702 -8.82339,3.04255 z m 11.56168,-69.67435 18.55955,-11.25743 8.51913,-0.60851 7.60637,2.12979 5.47659,7.60637 -0.60851,-8.51914 -7.30211,-5.17233 -8.51914,-5.47658 -13.08296,6.38935 -7.91062,5.17233 -4.56382,4.56382 z m -67.84882,25.55741 9.73616,-10.04041 7.30211,-4.25957 21.60209,-0.60851 11.25743,-1.52127 -7.30211,-7.30212 -6.69361,1.82553 -10.64892,-0.30425 -15.21274,1.82552 -4.56382,4.56383 -3.65106,8.82339 z"
       style="fill:#000000;fill-rule:evenodd;stroke:none;stroke-width:1px;stroke-linecap:butt;stroke-linejoin:miter;stroke-opacity:1"
       id="path7098" />
  </g>
</svg>
